<?xml version="1.0" standalone="no"?>
<!DOCTYPE svg PUBLIC "-//W3C//DTD SVG 20010904//EN"
 "http://www.w3.org/TR/2001/REC-SVG-20010904/DTD/svg10.dtd">
<svg version="1.0" xmlns="http://www.w3.org/2000/svg"
 width="900.000000pt" height="900.000000pt" viewBox="0 0 900.000000 900.000000"
 preserveAspectRatio="xMidYMid meet">
<metadata>
</metadata>
<g transform="translate(0.000000,900.000000) scale(0.100000,-0.100000)"
fill="#000000" stroke="none">
<path d="M0 4500 l0 -4500 4500 0 4500 0 0 4500 0 4500 -4500 0 -4500 0 0
-4500z m4922 4216 c76 -8 152 -17 170 -20 586 -93 1031 -246 1518 -524 608
-347 1153 -883 1522 -1497 311 -517 498 -1071 580 -1715 21 -165 17 -787 -5
-960 -51 -388 -131 -701 -264 -1040 -249 -633 -623 -1169 -1134 -1625 -670
-597 -1494 -959 -2393 -1050 -191 -20 -639 -19 -835 0 -779 78 -1507 364
-2131 836 -540 408 -971 934 -1265 1541 -241 501 -364 960 -410 1533 -40 494
15 1009 161 1505 328 1119 1127 2069 2182 2595 522 260 1077 405 1682 439 123
7 485 -4 622 -18z"/>
<path d="M4231 8599 c-1008 -64 -1964 -507 -2676 -1240 -645 -664 -1034 -1492
-1141 -2429 -24 -203 -24 -651 0 -855 58 -505 178 -923 390 -1360 215 -442
452 -774 805 -1125 483 -482 1055 -824 1711 -1023 628 -191 1318 -225 1972
-96 1080 212 2047 866 2650 1794 314 483 529 1043 613 1596 48 314 61 759 30
1050 -147 1396 -971 2603 -2210 3240 -672 345 -1393 496 -2144 448z m112 -226
c3 -5 7 -35 8 -68 4 -58 3 -60 -20 -60 -20 0 -27 8 -39 44 l-14 43 -45 -5
c-24 -2 -47 -7 -50 -11 -6 -5 9 -216 23 -338 6 -45 8 -48 35 -48 30 0 50 -24
33 -40 -5 -4 -53 -11 -106 -15 -94 -7 -98 -6 -98 13 0 13 10 24 30 31 25 8 30
15 26 33 -3 13 -10 84 -16 158 -16 213 -13 202 -68 198 l-47 -3 -9 -47 c-8
-40 -13 -48 -31 -48 -25 0 -35 30 -35 101 l0 39 53 1 c28 0 106 6 172 13 147
16 192 18 198 9z m467 -58 c0 -62 -1 -65 -24 -65 -20 0 -26 7 -33 38 l-9 37
-69 6 c-39 3 -72 3 -75 1 -3 -2 -5 -40 -5 -85 l0 -82 51 -3 c50 -3 52 -2 62
28 6 16 18 30 26 30 13 0 16 -14 16 -75 0 -67 -2 -75 -19 -75 -12 0 -21 9 -25
25 -6 23 -11 25 -61 25 l-55 0 0 -90 0 -90 50 -2 c110 -4 102 -7 118 40 11 34
18 42 38 42 23 0 24 -3 24 -65 l0 -65 -177 0 c-98 0 -184 4 -192 9 -21 14 -6
39 26 43 l28 3 3 190 2 190 -30 12 c-16 6 -30 18 -30 27 0 14 22 16 180 16
l180 0 0 -65z m275 20 c44 -8 86 -17 92 -20 19 -6 4 -35 -18 -35 -24 0 -24 -1
8 -83 l26 -68 54 53 c29 29 53 56 53 59 0 4 -9 11 -20 14 -23 7 -27 45 -5 45
8 0 46 -5 85 -12 62 -11 70 -15 68 -33 -2 -14 -12 -21 -34 -23 -23 -2 -49 -22
-103 -76 l-72 -72 47 -117 c41 -99 52 -118 76 -126 18 -7 28 -17 28 -30 0 -12
-3 -21 -7 -21 -23 0 -189 33 -196 39 -13 13 4 41 25 41 15 0 18 5 14 18 -32
86 -52 132 -56 131 -3 -1 -29 -28 -59 -60 -51 -55 -53 -60 -36 -73 10 -7 16
-20 12 -29 -5 -13 -14 -13 -79 -1 -40 8 -76 14 -80 14 -5 0 -8 9 -8 20 0 16 7
20 32 20 27 0 46 13 110 77 43 43 78 82 78 87 0 6 -19 56 -42 113 -35 83 -48
105 -70 114 -17 7 -28 19 -28 30 0 23 4 23 105 4z m-1301 -40 c3 -10 -5 -20
-25 -30 -20 -11 -28 -22 -25 -33 2 -9 21 -92 42 -184 l38 -168 32 0 c23 0 33
-5 37 -20 6 -22 6 -21 -96 -45 -91 -20 -107 -20 -107 5 0 11 4 20 8 20 5 0 16
6 26 13 16 12 15 22 -20 172 -20 88 -39 170 -41 183 -4 17 -12 22 -39 22 -27
0 -34 4 -34 20 0 13 9 22 28 26 15 4 50 12 77 20 67 17 92 17 99 -1z m1946
-100 c102 -44 100 -42 93 -61 -4 -11 -16 -15 -39 -12 -32 4 -34 3 -65 -69 -18
-41 -30 -75 -28 -76 9 -8 178 -77 187 -77 5 0 22 32 37 71 l29 71 -22 18 c-25
21 -28 38 -9 46 11 4 172 -57 184 -70 2 -2 1 -11 -3 -20 -5 -12 -14 -15 -38
-10 l-32 5 -72 -168 c-40 -92 -72 -173 -72 -178 0 -6 9 -16 20 -23 19 -12 28
-52 12 -52 -11 0 -127 47 -164 66 -38 20 -27 47 17 42 33 -4 34 -3 65 74 18
43 31 80 29 82 -22 16 -183 76 -190 69 -4 -4 -21 -40 -38 -79 l-29 -72 24 -13
c25 -13 29 -26 16 -45 -11 -18 -194 64 -190 85 3 12 13 15 39 13 l35 -2 73
175 74 175 -26 20 c-15 12 -24 27 -20 35 7 20 10 20 103 -20z m-2464 -88 c27
-28 98 -105 158 -170 96 -103 113 -117 141 -117 46 0 54 -26 12 -43 -122 -50
-159 -60 -168 -46 -6 10 -2 20 15 34 l25 20 -47 50 c-26 28 -79 86 -118 129
l-72 79 6 -201 5 -201 -38 -15 c-21 -9 -44 -16 -51 -16 -20 0 -17 33 5 49 17
13 19 35 26 248 6 200 10 235 24 243 24 14 24 14 77 -43z m3066 -181 c57 -31
83 -51 83 -63 0 -14 -8 -18 -38 -18 l-38 0 -89 -160 c-88 -159 -88 -160 -69
-181 21 -22 24 -40 10 -49 -10 -5 -181 85 -181 95 1 23 20 32 47 23 l29 -11
92 166 92 165 -21 23 c-18 20 -21 54 -4 54 2 0 42 -20 87 -44z m-3451 -12 c49
-33 104 -108 119 -162 37 -135 -23 -255 -150 -297 -116 -38 -222 13 -288 140
-22 42 -27 63 -27 132 0 76 2 84 31 120 34 41 97 89 129 97 11 2 48 3 82 1 48
-2 71 -9 104 -31z m3801 -206 c21 -17 25 -27 18 -38 -7 -12 -15 -13 -40 -3
-30 11 -32 10 -65 -35 -61 -85 -56 -119 30 -182 31 -23 58 -40 59 -38 1 1 26
36 55 76 51 69 53 74 36 92 -17 19 -18 53 -1 54 10 0 165 -107 165 -114 1 -3
-3 -11 -8 -19 -8 -12 -14 -12 -40 -1 -18 7 -33 11 -35 9 -68 -91 -216 -301
-216 -307 0 -5 9 -17 19 -26 19 -18 18 -46 -1 -46 -15 0 -168 110 -168 121 0
16 30 22 55 11 21 -10 26 -6 66 50 l42 61 -29 24 c-131 106 -149 132 -141 194
3 23 21 60 42 89 l37 51 -22 24 c-19 20 -21 27 -10 40 11 13 19 10 69 -25 31
-22 68 -50 83 -62z m-4366 -13 c4 -8 -1 -26 -10 -39 -15 -24 -14 -27 100 -168
113 -139 135 -160 149 -139 9 16 42 13 48 -3 4 -9 -19 -35 -65 -71 -38 -31
-76 -59 -84 -62 -21 -8 -29 25 -10 46 9 10 16 20 16 23 0 9 -230 292 -240 296
-9 3 -160 -118 -160 -128 0 -5 30 -42 181 -228 l59 -72 30 15 c27 14 30 14 39
-3 8 -15 -3 -28 -70 -81 -60 -48 -83 -61 -92 -52 -8 8 -7 19 7 41 l18 31 -68
82 c-37 45 -90 110 -118 145 -35 44 -55 61 -66 56 -29 -13 -55 -9 -55 7 0 15
359 318 378 319 4 0 10 -7 13 -15z m2594 -108 c226 -35 336 -60 523 -118 864
-268 1592 -937 1943 -1784 492 -1190 195 -2562 -747 -3449 -426 -401 -940
-668 -1512 -785 -221 -46 -332 -56 -622 -56 -242 0 -301 3 -435 24 -568 85
-1061 301 -1520 665 -109 86 -382 364 -479 486 -317 400 -540 894 -626 1385
-62 355 -60 779 6 1122 153 799 602 1494 1274 1970 413 293 903 482 1410 542
50 6 104 13 120 15 72 10 575 -3 665 -17z m2247 -248 c37 -39 69 -75 71 -80 6
-16 -29 -22 -53 -9 -20 11 -27 10 -52 -8 -15 -11 -42 -35 -60 -54 l-31 -33 71
-77 72 -77 59 57 c58 56 59 57 43 83 -14 26 -8 49 14 49 4 0 38 -34 75 -75 52
-59 65 -78 55 -88 -9 -9 -19 -8 -43 6 l-31 18 -66 -63 c-37 -35 -97 -92 -135
-128 -66 -62 -68 -65 -58 -94 9 -22 9 -33 0 -43 -13 -16 -26 -6 -101 80 -38
44 -47 61 -38 70 9 9 16 9 31 -1 32 -20 43 -15 102 46 l57 57 -71 73 c-38 39
-73 72 -76 72 -4 0 -32 -25 -64 -57 l-57 -56 16 -30 c12 -25 13 -31 1 -38 -17
-11 -13 -14 -90 67 -52 54 -65 73 -56 82 16 16 28 15 50 -5 20 -18 3 -31 216
169 l84 79 -17 25 c-13 20 -14 28 -4 40 6 8 13 14 14 14 2 0 34 -32 72 -71z
m-5500 -210 c9 -9 8 -19 -2 -40 l-15 -28 138 -107 c75 -59 142 -112 149 -117
8 -5 23 -2 42 9 23 14 34 15 42 7 15 -15 -106 -174 -127 -166 -16 6 -18 27 -4
53 8 16 -7 32 -118 118 -70 55 -129 98 -131 96 -3 -3 135 -329 146 -343 1 -2
10 2 18 9 13 11 18 11 30 -1 12 -12 7 -24 -41 -84 -74 -93 -71 -90 -88 -76
-11 9 -12 18 -3 41 10 26 9 32 -8 44 -11 8 -78 59 -149 115 l-129 100 -25 -20
c-22 -17 -28 -18 -40 -6 -12 13 -5 26 49 95 64 81 98 98 85 43 -4 -14 -8 -31
-9 -37 -2 -11 241 -209 249 -202 2 2 -29 79 -69 171 -62 145 -75 167 -91 163
-11 -3 -26 -1 -32 5 -10 8 2 29 49 90 34 43 64 79 67 79 4 0 11 -5 17 -11z
m5937 -283 c54 -78 62 -106 34 -106 -7 0 -21 9 -33 20 l-21 20 -132 -92 c-73
-50 -130 -93 -128 -96 4 -4 270 22 342 33 24 4 30 10 30 28 -2 41 27 23 81
-53 29 -41 53 -78 53 -83 0 -18 -33 -18 -53 1 l-22 21 -157 -110 c-151 -105
-157 -110 -146 -134 11 -25 5 -55 -11 -55 -5 0 -35 36 -66 80 -46 66 -55 83
-45 95 11 13 16 12 37 -5 14 -11 30 -17 37 -13 14 9 249 174 256 181 5 5 -89
-3 -215 -19 -44 -5 -98 -12 -121 -15 -37 -4 -41 -7 -37 -28 3 -14 -1 -25 -10
-29 -10 -4 -32 19 -71 76 -31 45 -56 85 -56 88 0 18 35 18 54 0 21 -19 21 -19
171 86 149 104 150 105 148 141 -2 28 6 48 23 52 0 0 26 -38 58 -84z m-6340
-242 c12 -5 15 -15 10 -43 l-5 -36 159 -87 c88 -49 163 -88 168 -88 5 0 15 9
22 20 13 21 37 26 47 10 9 -15 -83 -180 -100 -180 -21 0 -26 15 -16 44 10 24
6 27 -132 104 -78 44 -144 78 -146 76 -3 -2 131 -219 190 -307 4 -5 15 -3 27
4 15 9 25 10 32 3 15 -15 -79 -186 -100 -181 -10 2 -14 14 -13 37 l2 35 -158
88 c-87 48 -162 87 -167 87 -4 0 -17 -9 -29 -20 -14 -13 -25 -16 -35 -10 -13
8 -8 23 30 95 25 48 49 89 53 92 18 12 35 -18 27 -47 -8 -29 -7 -30 93 -86 56
-31 122 -68 146 -81 24 -14 42 -21 40 -16 -2 6 -49 80 -103 166 -88 138 -101
155 -112 139 -12 -15 -14 -16 -29 -1 -14 14 -11 23 32 102 27 48 49 87 50 87
1 0 8 -3 17 -6z m6702 -331 c21 -47 40 -90 42 -93 2 -4 -5 -11 -15 -14 -12 -5
-24 0 -38 18 l-20 25 -152 -67 c-83 -37 -151 -68 -150 -69 3 -2 342 -33 362
-33 8 0 15 9 15 19 0 16 27 38 35 29 13 -14 83 -182 79 -189 -10 -16 -32 -9
-51 15 l-19 24 -172 -76 -172 -76 2 -36 c2 -28 -1 -35 -15 -35 -13 0 -29 24
-57 87 -33 76 -37 88 -24 99 13 10 19 8 37 -14 l22 -27 147 67 c81 37 146 68
145 70 -3 2 -151 16 -298 28 -75 6 -76 6 -75 -17 1 -16 -5 -23 -17 -23 -13 0
-29 25 -58 89 -21 48 -39 90 -39 91 0 2 8 6 17 9 11 5 24 -2 37 -18 l21 -24
173 76 c172 77 172 77 166 106 -6 26 6 45 27 46 3 0 23 -39 45 -87z m140 3 c3
-8 -1 -25 -10 -38 -12 -20 -13 -28 -1 -62 14 -39 31 -56 70 -66 35 -10 24 -35
-17 -38 -46 -4 -74 10 -98 51 -28 46 -26 99 6 136 28 34 42 38 50 17z m-7166
-327 c0 -41 86 -229 104 -229 6 0 67 24 137 53 109 44 130 57 145 85 10 18 25
32 36 32 22 0 22 0 0 -80 l-19 -65 -126 -50 c-70 -27 -127 -52 -127 -55 0 -3
28 -14 63 -24 34 -10 68 -21 74 -23 7 -3 18 7 24 21 13 28 49 36 49 10 0 -9
-12 -54 -26 -101 -20 -66 -29 -83 -42 -81 -11 2 -19 16 -22 37 l-5 34 -175 53
-175 54 -20 -25 c-21 -25 -40 -32 -49 -17 -3 5 8 48 23 98 22 71 32 89 47 89
15 0 19 -6 17 -31 -3 -30 0 -32 64 -52 37 -12 69 -20 71 -17 2 2 -26 56 -62
119 -67 114 -67 115 -56 158 15 55 18 58 35 51 10 -3 15 -19 15 -44z m7330
-466 c6 -32 16 -76 22 -97 7 -30 7 -41 -4 -47 -22 -14 -29 -10 -40 22 -8 24
-15 29 -32 25 -12 -3 -89 -19 -171 -36 -195 -40 -183 -36 -187 -73 -2 -20 -9
-33 -20 -35 -13 -3 -20 12 -33 70 -22 103 -23 132 -4 136 10 2 21 -8 29 -28 7
-17 18 -29 24 -27 6 2 91 21 189 42 l177 38 0 34 c0 26 4 33 19 33 16 0 22
-11 31 -57z m-7141 -87 c57 -30 75 -83 60 -180 -22 -152 -32 -207 -40 -211
-12 -8 -39 24 -39 46 0 11 -9 21 -22 24 -34 7 -335 55 -347 55 -6 0 -13 -11
-17 -25 -4 -16 -13 -25 -25 -25 -22 0 -23 7 -7 117 11 76 14 84 33 81 14 -2
21 -12 23 -34 3 -31 4 -32 79 -43 42 -6 78 -10 79 -8 2 2 8 28 14 57 13 71 45
134 73 148 32 15 104 14 136 -2z m7217 -273 c12 -114 11 -137 -7 -141 -11 -2
-20 7 -27 28 l-11 30 -73 -6 c-40 -4 -76 -9 -80 -13 -8 -7 11 -193 21 -202 3
-4 41 -2 84 3 76 10 77 11 77 39 0 27 23 50 36 36 8 -8 33 -190 27 -199 -10
-18 -35 -6 -45 22 -9 27 -14 30 -42 25 -17 -2 -89 -12 -161 -20 -176 -21 -185
-23 -185 -45 0 -23 -30 -54 -40 -43 -8 8 -30 146 -30 183 0 31 38 26 46 -6 7
-26 7 -26 81 -20 90 8 105 14 99 35 -2 9 -7 50 -11 91 -3 42 -9 80 -13 86 -4
6 -38 6 -89 1 l-82 -9 -3 -31 c-2 -24 -8 -32 -23 -32 -17 0 -21 11 -31 95 -7
52 -10 98 -7 103 10 17 31 5 43 -24 13 -29 16 -31 54 -26 23 4 107 14 188 24
l147 17 6 33 c4 23 11 33 25 33 15 0 20 -11 26 -67z m-7531 -193 c15 -25 -6
-48 -50 -55 -52 -7 -71 -23 -84 -70 -19 -70 21 -136 103 -170 60 -25 181 -23
234 4 67 34 95 97 73 164 -10 29 -20 38 -64 54 -38 15 -53 26 -55 42 -3 19 1
21 48 21 28 0 60 -4 70 -10 32 -17 53 -92 48 -165 -12 -139 -102 -219 -248
-219 -169 0 -287 139 -250 297 23 98 42 117 115 117 30 0 57 -5 60 -10z m7453
-399 c45 -23 89 -71 109 -118 21 -53 17 -161 -9 -213 l-23 -45 -63 -3 -63 -3
3 27 c3 23 10 29 53 41 63 18 75 34 75 101 0 49 -3 58 -38 92 -29 29 -50 40
-97 50 -154 32 -285 -32 -285 -139 0 -59 19 -82 83 -104 31 -10 57 -22 57 -25
-1 -25 -21 -33 -76 -30 -57 3 -59 4 -81 43 -27 47 -32 155 -10 208 29 68 89
119 162 138 49 13 159 2 203 -20z m-7193 -144 c39 -39 51 -78 61 -212 11 -133
11 -129 -9 -133 -12 -3 -21 6 -29 28 -10 30 -13 32 -52 26 -22 -3 -107 -11
-189 -17 l-147 -12 -8 -31 c-5 -17 -16 -32 -24 -34 -21 -4 -28 42 -31 188 -2
119 9 157 52 183 48 28 98 22 137 -17 22 -22 34 -29 34 -19 0 8 15 30 34 49
30 30 40 34 86 34 46 0 56 -4 85 -33z m7278 -386 c4 -4 3 -37 -3 -72 -25 -154
-60 -342 -64 -346 -2 -2 -31 1 -65 8 -54 10 -61 14 -61 35 0 20 6 24 50 30
l49 6 7 45 c3 24 5 46 2 48 -2 2 -88 19 -190 38 l-187 34 -12 -29 c-7 -17 -19
-28 -30 -28 -23 0 -23 3 -4 110 8 47 15 86 15 88 0 1 8 2 18 2 11 0 21 -11 27
-32 10 -31 12 -32 110 -49 55 -10 138 -24 185 -32 47 -9 86 -14 89 -12 2 2 6
24 8 49 5 44 5 45 -36 65 -45 23 -44 22 -34 46 5 15 15 16 62 11 31 -4 59 -10
64 -15z m-7172 -152 c10 -52 18 -97 18 -101 2 -20 -41 -5 -51 17 -6 14 -19 25
-27 25 -9 0 -91 -13 -181 -30 -90 -16 -167 -30 -171 -30 -4 0 -9 -15 -11 -32
-3 -37 -33 -51 -42 -21 -11 34 -34 178 -29 186 2 4 11 7 19 7 12 0 24 -18 39
-57 0 -1 84 13 185 30 179 32 185 34 188 57 5 30 21 52 36 47 5 -2 18 -46 27
-98z m56 -253 l21 -64 -40 -66 c-21 -36 -54 -89 -73 -118 -19 -28 -33 -53 -32
-55 2 -1 37 9 79 24 76 26 76 27 71 58 -4 24 -1 34 12 39 10 3 19 5 20 4 12
-14 65 -189 60 -197 -11 -19 -31 -12 -45 14 -7 14 -17 25 -21 25 -3 0 -84 -27
-179 -60 -95 -33 -173 -60 -174 -60 -1 0 -1 -15 -1 -32 0 -26 -4 -33 -19 -33
-15 0 -25 18 -48 85 -15 47 -26 91 -23 97 5 14 35 18 35 5 0 -5 6 -16 13 -25
11 -16 16 -16 80 4 38 12 65 25 60 29 -4 5 -61 32 -125 60 -116 52 -117 52
-132 97 -9 25 -13 49 -10 54 11 18 33 8 52 -23 27 -46 208 -141 223 -118 5 8
39 63 74 121 55 91 65 114 65 153 0 38 3 46 18 46 13 0 23 -17 39 -64z m6583
-30 l0 -35 174 -55 c96 -31 177 -56 181 -56 3 0 16 11 28 25 15 17 26 22 35
16 20 -12 -44 -203 -67 -199 -11 2 -16 14 -17 37 l0 35 -157 52 c-183 61 -182
71 -11 -110 104 -110 113 -117 132 -105 38 24 40 -1 10 -98 -23 -76 -32 -93
-48 -93 -16 0 -20 7 -20 38 l0 38 -177 57 -178 56 -21 -26 c-13 -17 -27 -24
-37 -20 -13 5 -12 17 15 99 16 51 31 95 33 97 13 12 35 -12 35 -38 0 -29 2
-30 152 -80 83 -28 153 -49 156 -47 2 3 -54 65 -125 140 -106 112 -130 133
-139 121 -11 -15 -36 -20 -46 -9 -3 3 8 48 25 100 24 72 36 94 49 94 14 0 18
-8 18 -34z m-6620 -553 c33 -23 55 -49 87 -103 15 -25 28 -47 29 -49 2 -2 32
13 68 33 62 35 64 37 56 66 -6 21 -4 32 7 41 12 10 16 10 24 -2 13 -21 89
-167 89 -172 0 -3 -7 -8 -17 -11 -10 -4 -25 2 -38 14 l-22 21 -166 -88 -166
-88 2 -35 c4 -67 -25 -39 -90 87 -74 145 -81 190 -36 244 48 56 125 75 173 42z
m6367 -45 c4 -7 8 -26 8 -42 0 -27 11 -35 159 -117 87 -49 162 -89 167 -89 5
0 18 19 30 41 l21 41 -31 32 c-57 59 -31 81 48 42 28 -15 51 -31 51 -37 0 -13
-189 -357 -201 -364 -4 -3 -33 8 -63 26 -50 27 -55 33 -45 51 9 16 17 19 46
13 19 -3 40 -8 46 -11 7 -2 23 17 37 43 13 25 20 48 15 50 -6 2 -82 43 -170
92 l-160 89 -25 -23 c-24 -21 -50 -24 -50 -4 0 14 94 179 102 179 4 0 10 -6
15 -12z m-5929 -275 c37 -53 50 -79 43 -86 -7 -7 -18 -6 -37 3 -24 13 -27 12
-44 -10 -46 -61 -46 -63 5 -136 26 -38 49 -71 51 -72 1 -2 27 2 57 9 53 11 55
13 46 36 -5 14 -7 29 -3 34 12 21 33 6 78 -57 41 -57 46 -69 34 -81 -12 -12
-18 -11 -41 7 l-26 21 -168 -35 c-312 -65 -291 -62 -309 -44 -15 14 -5 33 111
214 111 174 126 201 121 229 -6 32 -1 45 18 45 6 -1 35 -35 64 -77z m5719 -84
c9 -9 8 -22 -4 -50 -15 -38 -14 -41 13 -104 32 -74 15 -67 204 -84 108 -10
115 -10 135 9 12 11 27 20 33 20 30 0 20 -33 -28 -97 -52 -69 -87 -88 -83 -46
3 26 -5 29 -119 38 l-77 7 41 -90 c40 -88 42 -90 63 -76 19 12 24 12 34 1 9
-11 2 -28 -35 -78 -26 -35 -48 -66 -50 -68 -2 -2 -10 2 -18 8 -11 10 -13 19
-5 38 8 22 -5 57 -97 251 l-106 225 23 31 c12 17 30 41 38 53 18 26 23 27 38
12z m-5373 -378 c59 -59 67 -72 57 -85 -10 -12 -18 -13 -33 -5 -11 6 -21 9
-22 7 -3 -3 -36 -134 -36 -143 0 -8 42 -6 103 6 51 11 56 14 51 34 -3 12 1 26
9 33 11 9 25 -1 70 -52 47 -53 54 -66 42 -76 -11 -9 -19 -8 -39 5 -24 16 -34
16 -132 2 -58 -9 -108 -18 -111 -21 -7 -7 -53 -197 -53 -221 0 -11 7 -30 15
-42 13 -19 13 -22 -1 -34 -14 -12 -25 -4 -85 59 -38 41 -69 78 -69 83 0 16 29
22 45 9 17 -14 16 -15 39 75 8 33 13 62 11 64 -2 1 -36 -3 -75 -10 -70 -12
-71 -13 -65 -40 11 -49 -15 -44 -76 17 -50 50 -57 60 -45 72 12 12 18 12 40 0
23 -12 42 -12 130 0 l103 15 28 115 c24 99 26 120 16 149 -12 31 -9 53 7 53 4
0 39 -31 76 -69z m5022 -75 c3 -8 0 -25 -7 -37 -11 -22 -4 -31 127 -156 76
-73 141 -133 144 -133 3 0 18 16 34 36 l29 36 -23 40 c-21 37 -21 41 -6 56 15
15 20 13 61 -28 25 -24 45 -48 45 -54 0 -5 -58 -68 -130 -140 -71 -72 -135
-139 -142 -149 -13 -17 -17 -16 -61 23 -49 44 -56 60 -33 79 10 8 23 6 54 -11
l41 -23 35 34 36 35 -23 24 c-12 13 -75 74 -141 135 l-118 111 -28 -16 c-25
-14 -30 -15 -41 -2 -10 13 -1 27 57 85 37 38 72 69 77 69 4 0 10 -6 13 -14z
m-4228 -687 c78 -38 120 -138 93 -222 -28 -85 -133 -141 -220 -117 -88 24
-151 126 -132 213 18 79 100 146 180 147 19 0 54 -10 79 -21z m3518 2 c127
-58 141 -240 23 -318 -54 -35 -139 -37 -193 -4 -50 31 -86 96 -86 155 0 137
132 223 256 167z m-2581 -292 c78 -11 86 -14 83 -33 -2 -15 -11 -22 -34 -24
-30 -3 -32 -5 -38 -60 -4 -31 -9 -66 -12 -78 -5 -19 0 -22 53 -32 32 -6 79
-14 104 -17 l47 -7 11 64 c15 90 14 97 -14 108 -23 9 -37 50 -17 50 22 -1 184
-30 192 -35 18 -11 -3 -35 -31 -35 -33 0 -28 16 -65 -210 -24 -153 -25 -166
-9 -175 39 -23 45 -30 36 -44 -8 -12 -23 -12 -102 0 -83 12 -94 16 -94 34 0
15 8 21 31 23 31 3 31 4 43 84 6 45 9 83 6 86 -5 5 -160 31 -186 32 -11 0 -19
-17 -27 -64 -17 -89 -15 -101 13 -114 34 -16 35 -57 1 -48 -13 3 -56 10 -97
16 -40 6 -77 14 -81 18 -11 11 4 26 37 37 l30 10 27 170 c33 214 34 201 -1
213 -23 8 -28 15 -24 32 3 12 11 19 19 16 7 -3 52 -11 99 -17z m1745 3 c0 -11
-10 -24 -23 -29 -23 -11 -32 -32 -122 -283 -13 -36 -34 -94 -47 -130 l-24 -65
-62 -11 c-34 -6 -64 -9 -67 -6 -15 16 -1 39 31 51 28 10 40 23 55 59 39 90 40
89 -57 203 -48 57 -88 106 -90 108 -2 2 -18 6 -36 10 -18 4 -34 14 -36 22 -2
13 14 19 75 28 43 7 86 15 96 17 25 8 35 -26 12 -42 -17 -13 -15 -17 24 -66
61 -78 81 -101 84 -97 12 15 65 174 61 181 -3 4 -14 8 -25 8 -12 0 -19 7 -19
19 0 15 11 21 58 29 93 16 112 15 112 -6z m-702 -155 c3 -65 2 -67 -21 -67
-20 0 -27 8 -37 45 l-13 45 -49 0 -48 0 2 -197 3 -198 30 -5 c22 -4 30 -11 30
-25 0 -18 -8 -20 -103 -23 -102 -3 -103 -2 -100 20 2 14 12 24 28 28 l25 6 -4
195 c-2 106 -5 195 -6 197 -2 2 -23 0 -48 -3 -43 -7 -46 -9 -57 -51 -11 -37
-17 -44 -34 -42 -19 3 -21 11 -24 70 l-3 68 203 2 c112 2 208 3 213 2 6 0 11
-31 13 -67z"/>
<path d="M2662 7880 c-33 -20 -62 -71 -62 -108 0 -40 32 -123 69 -179 40 -60
99 -103 140 -103 30 0 71 22 101 55 57 61 12 224 -86 315 -37 34 -50 40 -86
40 -25 0 -57 -8 -76 -20z"/>
<path d="M4041 6536 c-261 -157 -478 -291 -482 -298 -5 -7 -9 -39 -9 -70 l0
-58 -60 0 c-47 0 -64 -4 -80 -20 -46 -46 -14 -80 76 -80 l64 0 0 -65 0 -65
-628 0 c-475 0 -631 -3 -640 -12 -9 -9 -12 -308 -12 -1284 0 -1144 2 -1274 16
-1288 14 -14 231 -16 2238 -16 2141 0 2224 1 2239 18 16 17 17 120 17 1283 0
997 -3 1269 -12 1282 -12 16 -64 17 -633 19 l-620 3 -3 68 -3 67 54 0 c58 0
87 19 87 56 0 33 -21 44 -82 44 l-58 0 0 63 c0 48 -4 68 -17 79 -29 25 -936
551 -958 555 -13 3 -188 -97 -494 -281z m924 -76 c235 -138 434 -255 442 -262
8 -6 13 -25 11 -42 -3 -30 -4 -31 -61 -34 l-59 -3 -371 210 c-205 115 -380
213 -389 216 -11 5 -139 -65 -393 -214 -376 -220 -377 -221 -436 -221 l-59 0
0 38 0 37 433 262 c237 144 437 262 442 262 6 1 204 -112 440 -249z m-208
-149 c125 -71 246 -139 268 -151 252 -143 245 -140 322 -140 l73 0 0 -109 c0
-90 3 -110 16 -115 9 -3 150 -6 315 -6 l299 0 0 -1205 0 -1205 -1520 0 -1520
0 0 1205 0 1205 308 0 c226 0 311 3 320 12 8 8 12 47 12 110 l0 98 73 0 72 0
215 126 c118 70 267 157 330 194 63 37 131 77 150 88 19 12 36 22 37 22 1 0
105 -58 230 -129z m-1847 -1726 l0 -1205 -270 0 -270 0 0 1205 0 1205 270 0
270 0 0 -1205z m3770 0 l0 -1205 -262 2 -263 3 -3 1190 c-1 655 0 1196 3 1203
3 9 66 12 265 12 l260 0 0 -1205z"/>
<path d="M4475 6199 c-61 -18 -115 -92 -115 -159 0 -104 105 -184 206 -159
149 38 169 247 30 310 -44 20 -74 22 -121 8z"/>
<path d="M4058 5671 l-33 -29 -3 -206 -3 -206 111 0 111 0 -3 206 -3 206 -33
29 c-24 22 -42 29 -72 29 -30 0 -48 -7 -72 -29z"/>
<path d="M4471 5686 c-46 -25 -50 -48 -51 -258 l0 -198 111 0 110 0 -3 206 -3
206 -33 29 c-36 32 -89 38 -131 15z"/>
<path d="M4873 5680 c-45 -27 -53 -67 -53 -272 l0 -178 110 0 110 0 0 203 c0
176 -3 205 -18 223 -38 47 -96 57 -149 24z"/>
<path d="M3170 5420 l0 -170 110 0 110 0 0 170 0 170 -110 0 -110 0 0 -170z"/>
<path d="M3558 5448 c-2 -79 -2 -155 0 -170 l3 -28 110 0 109 0 0 170 0 170
-109 0 -110 0 -3 -142z"/>
<path d="M5280 5420 l0 -171 113 3 112 3 3 168 2 167 -115 0 -115 0 0 -170z"/>
<path d="M5670 5420 l0 -171 113 3 112 3 3 168 2 167 -115 0 -115 0 0 -170z"/>
<path d="M4082 5013 c-57 -28 -62 -50 -62 -268 l0 -195 110 0 110 0 0 195 c0
221 -6 246 -65 271 -43 18 -52 17 -93 -3z"/>
<path d="M4484 5016 c-61 -27 -64 -39 -64 -263 l0 -203 110 0 110 0 0 191 c0
200 -7 240 -48 265 -31 20 -76 24 -108 10z"/>
<path d="M4890 5012 c-63 -31 -71 -61 -68 -272 l3 -185 108 -3 107 -3 0 203
c0 226 -3 238 -66 264 -42 18 -42 18 -84 -4z"/>
<path d="M3170 4780 l0 -171 110 3 c61 2 110 6 110 11 0 4 0 79 0 167 l0 160
-110 0 -110 0 0 -170z"/>
<path d="M3560 4790 c0 -88 0 -163 0 -167 0 -5 49 -9 110 -11 l110 -3 0 171 0
170 -110 0 -110 0 0 -160z"/>
<path d="M5280 4780 l0 -170 115 0 115 0 0 170 0 170 -115 0 -115 0 0 -170z"/>
<path d="M5670 4780 l0 -170 115 0 115 0 0 170 0 170 -115 0 -115 0 0 -170z"/>
<path d="M4072 4331 c-18 -12 -37 -33 -42 -47 -6 -14 -10 -111 -10 -215 l0
-189 111 0 110 0 -3 205 -3 205 -26 26 c-36 35 -94 42 -137 15z"/>
<path d="M4484 4340 c-12 -4 -31 -21 -43 -36 -20 -25 -21 -38 -21 -225 l0
-199 110 0 110 0 0 185 c0 208 -8 243 -59 269 -33 17 -64 19 -97 6z"/>
<path d="M4879 4335 c-51 -28 -59 -65 -59 -269 l0 -186 110 0 110 0 0 203 c0
176 -3 205 -18 223 -35 44 -93 56 -143 29z"/>
<path d="M3170 4135 l0 -165 113 0 c112 0 114 0 111 23 -1 12 -3 86 -3 165
l-1 142 -110 0 -110 0 0 -165z"/>
<path d="M3555 4135 l0 -165 113 0 112 0 0 165 0 165 -112 0 -113 0 0 -165z"/>
<path d="M5280 4135 l0 -165 115 0 115 0 0 165 0 165 -115 0 -115 0 0 -165z"/>
<path d="M5670 4135 l0 -165 115 0 115 0 0 165 0 165 -115 0 -115 0 0 -165z"/>
<path d="M3790 3695 l0 -45 563 0 c310 0 646 -3 745 -7 l182 -6 0 51 0 52
-745 0 -745 0 0 -45z"/>
<path d="M3592 3523 l3 -48 940 0 940 0 0 45 0 45 -943 3 -943 2 3 -47z"/>
<path d="M2522 5423 l3 -168 113 -3 112 -3 0 171 0 170 -115 0 -115 0 2 -167z"/>
<path d="M2524 4937 c-2 -7 -3 -82 -2 -167 l3 -155 113 -3 112 -3 0 171 0 170
-110 0 c-81 0 -112 -3 -116 -13z"/>
<path d="M2520 4135 l0 -165 115 0 115 0 0 165 0 165 -115 0 -115 0 0 -165z"/>
<path d="M6300 5420 l0 -171 113 3 112 3 3 168 2 167 -115 0 -115 0 0 -170z"/>
<path d="M6300 4780 l0 -170 115 0 115 0 0 170 0 170 -115 0 -115 0 0 -170z"/>
<path d="M6300 4135 l0 -165 115 0 115 0 0 165 0 165 -115 0 -115 0 0 -165z"/>
<path d="M3761 2681 c-69 -40 -80 -50 -81 -73 l0 -28 55 35 c30 19 59 35 65
35 7 0 10 -68 8 -217 l-3 -217 -32 -8 c-23 -6 -33 -14 -33 -28 0 -19 7 -20
115 -20 106 0 115 1 115 19 0 14 -10 21 -37 28 l-38 9 -5 254 c-6 300 3 286
-129 211z"/>
<path d="M4185 2716 c-102 -46 -122 -166 -39 -234 l35 -29 -35 -23 c-48 -33
-66 -69 -66 -130 0 -47 4 -56 38 -90 21 -21 55 -43 77 -49 89 -24 172 -7 227
49 34 34 38 43 38 90 0 63 -27 113 -73 136 -29 16 -30 17 -11 30 77 53 95 129
48 202 -35 53 -168 80 -239 48z m118 -27 c38 -19 57 -52 57 -97 0 -89 -58
-138 -126 -106 -76 36 -70 172 10 204 29 12 34 12 59 -1z m41 -292 c16 -22 21
-43 21 -89 0 -55 -3 -62 -33 -89 -41 -36 -80 -38 -120 -4 -52 44 -54 140 -4
190 21 22 33 25 70 23 36 -2 49 -9 66 -31z"/>
<path d="M4642 2713 c-99 -49 -112 -183 -22 -240 l30 -19 -37 -25 c-72 -46
-93 -144 -46 -207 64 -86 239 -95 319 -16 71 71 44 200 -49 237 -7 3 3 18 25
39 80 72 61 192 -39 234 -44 19 -140 17 -181 -3z m157 -48 c48 -47 26 -162
-34 -185 -60 -23 -118 29 -118 104 0 101 85 147 152 81z m0 -259 c25 -27 38
-96 27 -141 -10 -41 -53 -75 -93 -75 -86 0 -127 128 -67 208 21 27 31 32 68
32 32 0 48 -6 65 -24z"/>
<path d="M5045 2715 c-2 -5 -8 -59 -15 -120 -6 -60 -14 -129 -17 -152 -5 -42
-5 -43 23 -43 22 0 34 9 51 35 44 67 124 55 165 -26 33 -63 16 -158 -33 -193
-26 -18 -90 -21 -119 -6 -10 5 -23 31 -30 60 -10 43 -15 50 -36 50 -24 0 -25
-2 -22 -62 3 -60 4 -61 43 -82 59 -31 166 -29 219 3 56 35 91 114 83 188 -14
139 -140 209 -255 142 -18 -10 -34 -19 -36 -19 -1 0 1 30 5 68 5 37 8 72 8 79
1 9 35 13 119 15 l117 3 0 33 0 33 -134 2 c-82 1 -135 -2 -136 -8z"/>
<path d="M974 5294 c-10 -14 -20 -45 -24 -69 l-6 -43 90 -15 c50 -8 92 -14 93
-13 0 0 4 27 8 58 7 52 5 59 -18 82 -21 21 -36 26 -76 26 -43 0 -53 -4 -67
-26z"/>
<path d="M920 4312 c-16 -13 -24 -32 -27 -68 -6 -73 -1 -76 100 -68 81 6 87 8
87 29 0 43 -12 84 -32 104 -25 27 -96 29 -128 3z"/>
<path d="M700 4280 c-15 -15 -20 -33 -20 -76 l0 -57 53 7 c28 3 67 6 85 6 29
0 32 3 32 29 0 41 -19 90 -40 101 -32 17 -88 12 -110 -10z"/>
<path d="M1120 2934 c-53 -23 -70 -43 -70 -83 0 -33 31 -101 46 -101 14 0 164
84 164 92 0 33 -66 109 -94 108 -6 -1 -27 -8 -46 -16z"/>
<path d="M2610 1393 c-22 -20 -33 -40 -37 -69 -18 -139 169 -188 223 -58 18
44 8 88 -28 125 -25 24 -38 29 -79 29 -39 0 -55 -5 -79 -27z"/>
<path d="M6132 1392 c-78 -73 -28 -202 78 -202 107 0 157 128 78 202 -24 23
-39 28 -78 28 -39 0 -54 -5 -78 -28z"/>
</g>
</svg>
